<?xml version="1.0" standalone="no"?>
<svg xmlns="http://www.w3.org/2000/svg" viewBox="0 0 166.608 28.383" width="166.608" height="28.383"><g fill="#ffe100" color="#ffe100" transform="translate(0, 0) scale(0.6170213)"><svg width="47.0" height="46.0" x="0.0" y="0.0" viewBox="0 0 47 46"><path fill="currentColor" fill-rule="nonzero" d="M44.78 1.64c-3.27-3.27-12.02-.08-21.36 7.22-9.34-7.3-18.09-10.5-21.36-7.22C-1.22 4.91 1.98 13.66 9.27 23 1.98 32.34-1.22 41.09 2.06 44.37c3.27 3.27 12.02.08 21.36-7.22 9.34 7.29 18.09 10.49 21.36 7.22 3.27-3.27.08-12.02-7.22-21.36 7.3-9.35 10.5-18.1 7.22-21.37zm-3.69 2.48c.69 0 .98.14 1.02.18.19.19.68 2.33-1.68 7.26-1.28 2.67-3.1 5.54-5.31 8.44-1.3-1.51-2.7-3.02-4.2-4.51-1.49-1.49-3-2.89-4.51-4.19 6.23-4.72 11.69-7.18 14.68-7.18zM32.71 23a80.65 80.65 0 0 1-9.29 9.29 82.406 82.406 0 0 1-4.84-4.45 80.65 80.65 0 0 1-4.45-4.83 79.34 79.34 0 0 1 4.45-4.84 84.12 84.12 0 0 1 4.83-4.46 79.34 79.34 0 0 1 9.3 9.29zM4.54 5.33c0-.69.14-.98.18-1.02.19-.19 2.33-.68 7.26 1.69 2.67 1.28 5.54 3.1 8.44 5.31a87.109 87.109 0 0 0-4.51 4.2c-1.49 1.49-2.89 3-4.19 4.51C7 13.78 4.54 8.32 4.54 5.33zm1.21 36.55c-.69 0-.99-.15-1.02-.18-.19-.19-.68-2.33 1.69-7.26 1.28-2.67 3.1-5.54 5.31-8.44 1.31 1.51 2.71 3.02 4.2 4.51 1.49 1.49 3 2.89 4.51 4.19-6.24 4.73-11.7 7.18-14.69 7.18zm36.55-1.21c0 .69-.15.98-.18 1.02-.19.19-2.33.68-7.26-1.68-2.67-1.28-5.54-3.1-8.44-5.31 1.51-1.3 3.02-2.7 4.51-4.2 1.49-1.49 2.89-3 4.2-4.51 4.71 6.23 7.17 11.69 7.17 14.68z"></path></svg></g><line x1="41" y1="1" x2="41" y2="27.383" stroke="#000000" stroke-linecap="round"></line><path fill="#000000" fill-rule="nonzero" d="M6.43 5.09Q8.81 5.09 10.21 6.47Q11.62 7.85 11.62 10.49L11.62 10.49L11.62 17.81L9.91 17.81L9.91 10.66Q9.91 8.69 8.93 7.66Q7.94 6.62 6.12 6.62L6.12 6.62Q4.08 6.62 2.89 7.84Q1.70 9.05 1.70 11.18L1.70 11.18L1.70 17.81L0 17.81L0 0L1.70 0L1.70 7.39Q2.40 6.29 3.62 5.69Q4.85 5.09 6.43 5.09L6.43 5.09ZM26.11 5.18L27.82 5.18L27.82 17.81L26.18 17.81L26.18 15.31Q25.42 16.58 24.16 17.26Q22.90 17.93 21.31 17.93L21.31 17.93Q19.54 17.93 18.10 17.11Q16.66 16.30 15.84 14.83Q15.02 13.37 15.02 11.50L15.02 11.50Q15.02 9.62 15.84 8.16Q16.66 6.70 18.10 5.89Q19.54 5.09 21.31 5.09L21.31 5.09Q22.85 5.09 24.08 5.72Q25.32 6.36 26.11 7.58L26.11 7.58L26.11 5.18ZM21.46 16.42Q22.78 16.42 23.84 15.80Q24.91 15.19 25.52 14.06Q26.14 12.94 26.14 11.50L26.14 11.50Q26.14 10.06 25.52 8.93Q24.91 7.80 23.84 7.19Q22.78 6.58 21.46 6.58L21.46 6.58Q20.11 6.58 19.04 7.19Q17.98 7.80 17.36 8.93Q16.75 10.06 16.75 11.50L16.75 11.50Q16.75 12.94 17.36 14.06Q17.98 15.19 19.04 15.80Q20.11 16.42 21.46 16.42L21.46 16.42ZM34.20 7.66Q34.80 6.38 35.99 5.74Q37.18 5.09 38.93 5.09L38.93 5.09L38.93 6.74L38.52 6.72Q36.53 6.72 35.40 7.94Q34.27 9.17 34.27 11.38L34.27 11.38L34.27 17.81L32.57 17.81L32.57 5.18L34.20 5.18L34.20 7.66ZM51.70 0L53.40 0L53.40 17.81L51.77 17.81L51.77 15.31Q51.00 16.58 49.74 17.26Q48.48 17.93 46.90 17.93L46.90 17.93Q45.12 17.93 43.68 17.11Q42.24 16.30 41.42 14.83Q40.61 13.37 40.61 11.50L40.61 11.50Q40.61 9.62 41.42 8.16Q42.24 6.70 43.68 5.89Q45.12 5.09 46.90 5.09L46.90 5.09Q48.43 5.09 49.67 5.72Q50.90 6.36 51.70 7.58L51.70 7.58L51.70 0ZM47.04 16.42Q48.36 16.42 49.43 15.80Q50.50 15.19 51.11 14.06Q51.72 12.94 51.72 11.50L51.72 11.50Q51.72 10.06 51.11 8.93Q50.50 7.80 49.43 7.19Q48.36 6.58 47.04 6.58L47.04 6.58Q45.70 6.58 44.63 7.19Q43.56 7.80 42.95 8.93Q42.34 10.06 42.34 11.50L42.34 11.50Q42.34 12.94 42.95 14.06Q43.56 15.19 44.63 15.80Q45.70 16.42 47.04 16.42L47.04 16.42ZM57.22 12.05L57.22 10.56L63.50 10.56L63.50 12.05L57.22 12.05ZM72.94 15.82L73.54 17.04Q73.06 17.47 72.36 17.70Q71.66 17.93 70.90 17.93L70.90 17.93Q69.12 17.93 68.16 16.97Q67.20 16.01 67.20 14.26L67.20 14.26L67.20 2.42L68.90 2.42L68.90 5.18L72.72 5.18L72.72 6.62L68.90 6.62L68.90 14.16Q68.90 15.29 69.46 15.88Q70.01 16.46 71.06 16.46L71.06 16.46Q72.22 16.46 72.94 15.82L72.94 15.82ZM81.58 16.42Q82.75 16.42 83.75 16.00Q84.74 15.58 85.44 14.76L85.44 14.76L86.40 15.86Q85.56 16.87 84.31 17.40Q83.06 17.93 81.55 17.93L81.55 17.93Q79.61 17.93 78.10 17.10Q76.58 16.27 75.74 14.81Q74.90 13.34 74.90 11.50L74.90 11.50Q74.90 9.65 75.71 8.18Q76.51 6.72 77.93 5.90Q79.34 5.09 81.14 5.09L81.14 5.09Q82.82 5.09 84.18 5.86Q85.54 6.62 86.34 7.99Q87.14 9.36 87.19 11.11L87.19 11.11L76.82 13.13Q77.30 14.66 78.56 15.54Q79.82 16.42 81.58 16.42L81.58 16.42ZM81.14 6.55Q79.82 6.55 78.78 7.16Q77.74 7.78 77.15 8.87Q76.56 9.96 76.56 11.38L76.56 11.38Q76.56 11.74 76.58 11.90L76.58 11.90L85.49 10.18Q85.20 8.59 84.02 7.57Q82.85 6.55 81.14 6.55L81.14 6.55ZM95.90 17.93Q94.03 17.93 92.56 17.11Q91.08 16.30 90.24 14.82Q89.40 13.34 89.40 11.50L89.40 11.50Q89.40 9.65 90.24 8.18Q91.08 6.72 92.56 5.90Q94.03 5.09 95.90 5.09L95.90 5.09Q97.54 5.09 98.82 5.72Q100.10 6.36 100.85 7.58L100.85 7.58L99.58 8.45Q98.95 7.51 97.99 7.04Q97.03 6.58 95.90 6.58L95.90 6.58Q94.54 6.58 93.44 7.19Q92.35 7.80 91.74 8.93Q91.13 10.06 91.13 11.50L91.13 11.50Q91.13 12.96 91.74 14.08Q92.35 15.19 93.44 15.80Q94.54 16.42 95.90 16.42L95.90 16.42Q97.03 16.42 97.99 15.96Q98.95 15.50 99.58 14.57L99.58 14.57L100.85 15.43Q100.10 16.66 98.81 17.29Q97.51 17.93 95.90 17.93L95.90 17.93ZM110.42 5.09Q112.80 5.09 114.20 6.47Q115.61 7.85 115.61 10.49L115.61 10.49L115.61 17.81L113.90 17.81L113.90 10.66Q113.90 8.69 112.92 7.66Q111.94 6.62 110.11 6.62L110.11 6.62Q108.07 6.62 106.88 7.84Q105.70 9.05 105.70 11.18L105.70 11.18L105.70 17.81L103.99 17.81L103.99 0L105.70 0L105.70 7.39Q106.39 6.29 107.62 5.69Q108.84 5.09 110.42 5.09L110.42 5.09Z" transform="translate(51, 5.288)"></path></svg>